<svg xmlns="http://www.w3.org/2000/svg" xmlns:xlink="http://www.w3.org/1999/xlink" width="96.66mm" height="160.13mm" viewBox="0 0 274 453.93">
  <defs>
    <clipPath id="a">
      <rect x="13.51" y="161.75" width="246.98" height="134.8" fill="none"/>
    </clipPath>
    <clipPath id="b">
      <rect x="13.51" y="314.84" width="246.98" height="85.04" fill="none"/>
    </clipPath>
    <clipPath id="c">
      <rect y="414.93" width="274" height="39" fill="none"/>
    </clipPath>
    <clipPath id="d">
      <rect x="52.1" y="430.64" width="13.31" height="7.55" fill="none"/>
    </clipPath>
    <clipPath id="e">
      <rect x="52" y="429.93" width="14" height="9" fill="none"/>
    </clipPath>
    <clipPath id="f">
      <rect x="256.1" y="430.64" width="13.31" height="7.55" fill="none"/>
    </clipPath>
    <clipPath id="g">
      <rect x="256" y="429.93" width="14" height="9" fill="none"/>
    </clipPath>
    <clipPath id="h">
      <rect x="159.1" y="430.64" width="13.31" height="7.55" fill="none"/>
    </clipPath>
    <clipPath id="i">
      <rect x="159" y="429.93" width="14" height="9" fill="none"/>
    </clipPath>
    <clipPath id="j">
      <rect x="159.22" y="125.36" width="101" height="18" fill="none"/>
    </clipPath>
    <clipPath id="k">
      <rect x="24.71" y="80.14" width="66" height="32" fill="none"/>
    </clipPath>
    <clipPath id="l">
      <rect x="24.71" y="80.14" width="65.8" height="31.7" fill="none"/>
    </clipPath>
    <clipPath id="n">
      <rect x="104.53" y="80.14" width="65.88" height="32" fill="none"/>
    </clipPath>
    <clipPath id="o">
      <rect x="104.53" y="80.14" width="65.27" height="31.45" fill="none"/>
    </clipPath>
    <clipPath id="q">
      <rect x="183.29" y="80.14" width="66" height="32" fill="none"/>
    </clipPath>
    <clipPath id="r">
      <rect x="183.29" y="80.14" width="65.73" height="31.67" fill="none"/>
    </clipPath>
    <clipPath id="t">
      <rect x="13.51" y="128.36" width="125" height="12" fill="none"/>
    </clipPath>
    <clipPath id="u">
      <rect x="5.5" y="1.92" width="263" height="62" fill="none"/>
    </clipPath>
  </defs>
  <title>Tekengebied 1</title>
  <g>
    <g clip-path="url(#a)">
      <path d="M14,190.1v-22a5.87,5.87,0,0,1,5.88-5.88H254.09a5.87,5.87,0,0,1,5.88,5.88v22a5.87,5.87,0,0,1-5.88,5.88H19.84A5.87,5.87,0,0,1,14,190.1Z" fill="#fcfdfd"/>
      <path d="M14,190.1v-22a5.87,5.87,0,0,1,5.88-5.88H254.09a5.87,5.87,0,0,1,5.88,5.88v22a5.87,5.87,0,0,1-5.88,5.88H19.84A5.87,5.87,0,0,1,14,190.1Z" fill="none" stroke="#262626" stroke-width="0.9"/>
      <text transform="translate(31.73 182.87)" font-size="9.95" fill="#bfbebe" font-family="Montserrat, Montserrat">-K</text>
      <text transform="translate(42.59 182.87)" font-size="9.95" fill="#bfbebe" font-family="Montserrat, Montserrat">e</text>
      <text transform="translate(48.78 182.87)" font-size="9.95" fill="#bfbebe" font-family="Montserrat, Montserrat">u</text>
      <text transform="translate(55.56 182.87)" font-size="9.95" fill="#bfbebe" font-family="Montserrat, Montserrat">z</text>
      <text transform="translate(60.77 182.87)" font-size="9.95" fill="#bfbebe" font-family="Montserrat, Montserrat">e</text>
      <text transform="translate(66.96 182.87)" font-size="9.95" fill="#bfbebe" font-family="Montserrat, Montserrat"> </text>
      <text transform="translate(69.71 182.87)" font-size="9.95" fill="#bfbebe" font-family="Montserrat, Montserrat">t</text>
      <text transform="translate(73.93 182.87)" font-size="9.95" fill="#bfbebe" font-family="Montserrat, Montserrat">i</text>
      <text transform="translate(76.8 182.87)" font-size="9.95" fill="#bfbebe" font-family="Montserrat, Montserrat">c</text>
      <text transform="translate(82.54 182.87)" font-size="9.95" fill="#bfbebe" font-family="Montserrat, Montserrat">k</text>
      <text transform="translate(88.65 182.87)" font-size="9.95" fill="#bfbebe" font-family="Montserrat, Montserrat">e</text>
      <text transform="translate(94.84 182.87)" font-size="9.95" fill="#bfbebe" font-family="Montserrat, Montserrat">t</text>
      <text transform="translate(98.96 182.87)" font-size="9.95" fill="#bfbebe" font-family="Montserrat, Montserrat">-</text>
      <path d="M221.48,172.92h18.83a1.46,1.46,0,0,1,1,2.49l-9.41,9.42a1.47,1.47,0,0,1-2.07,0l-9.42-9.42A1.46,1.46,0,0,1,221.48,172.92Z" fill="#3d3d3f"/>
      <path d="M14,240.07v-22a5.87,5.87,0,0,1,5.88-5.88H254.09a5.87,5.87,0,0,1,5.88,5.88v22a5.87,5.87,0,0,1-5.88,5.88H19.84A5.87,5.87,0,0,1,14,240.07Z" fill="#fcfdfd"/>
      <path d="M14,240.07v-22a5.87,5.87,0,0,1,5.88-5.88H254.09a5.87,5.87,0,0,1,5.88,5.88v22a5.87,5.87,0,0,1-5.88,5.88H19.84A5.87,5.87,0,0,1,14,240.07Z" fill="none" stroke="#262626" stroke-width="0.9"/>
      <text transform="translate(31.73 232.84)" font-size="9.95" fill="#bfbebe" font-family="Montserrat, Montserrat">-</text>
      <text transform="translate(35.37 232.84)" font-size="9.95" fill="#bfbebe" font-family="Montserrat, Montserrat">Aantal munt</text>
      <text transform="translate(99.67 232.84)" font-size="9.95" fill="#bfbebe" font-family="Montserrat, Montserrat">e</text>
      <text transform="translate(105.86 232.84)" font-size="9.95" fill="#bfbebe" font-family="Montserrat, Montserrat">n</text>
      <text transform="translate(112.68 232.84)" font-size="9.95" fill="#bfbebe" font-family="Montserrat, Montserrat">-</text>
      <path d="M221.48,222.89h18.83a1.46,1.46,0,0,1,1,2.49l-9.41,9.42a1.47,1.47,0,0,1-2.07,0l-9.42-9.42A1.46,1.46,0,0,1,221.48,222.89Z" fill="#3d3d3f"/>
      <path d="M14,290V268a5.87,5.87,0,0,1,5.88-5.88H254.09A5.87,5.87,0,0,1,260,268v22a5.87,5.87,0,0,1-5.88,5.88H19.84A5.87,5.87,0,0,1,14,290Z" fill="#fcfdfd"/>
      <path d="M14,290V268a5.87,5.87,0,0,1,5.88-5.88H254.09A5.87,5.87,0,0,1,260,268v22a5.87,5.87,0,0,1-5.88,5.88H19.84A5.87,5.87,0,0,1,14,290Z" fill="none" stroke="#262626" stroke-width="0.9"/>
      <text transform="translate(31.73 282.22)" font-size="9.95" fill="#bfbebe" font-family="Montserrat, Montserrat">-</text>
      <text transform="translate(35.37 282.22)" font-size="9.95" fill="#bfbebe" font-family="Montserrat, Montserrat">Aantal T</text>
      <text transform="translate(77 282.22)" font-size="9.95" fill="#bfbebe" font-family="Montserrat, Montserrat">e</text>
      <text transform="translate(83.19 282.22)" font-size="9.95" fill="#bfbebe" font-family="Montserrat, Montserrat">nt</text>
      <text transform="translate(94.05 282.22)" font-size="9.95" fill="#bfbebe" font-family="Montserrat, Montserrat">e</text>
      <text transform="translate(100.24 282.22)" font-size="9.95" fill="#bfbebe" font-family="Montserrat, Montserrat">n</text>
      <text transform="translate(107.06 282.22)" font-size="9.95" fill="#bfbebe" font-family="Montserrat, Montserrat">-</text>
      <text transform="translate(110.89 282.22)" font-size="9.95" fill="#bfbebe" font-family="Montserrat, Montserrat"> </text>
      <path d="M221.48,272.86h18.83a1.46,1.46,0,0,1,1,2.49l-9.41,9.42a1.47,1.47,0,0,1-2.07,0l-9.42-9.42A1.46,1.46,0,0,1,221.48,272.86Z" fill="#3d3d3f"/>
    </g>
    <g clip-path="url(#b)">
      <path d="M14,393.16v-22a5.89,5.89,0,0,1,5.88-5.88H254.09a5.89,5.89,0,0,1,5.88,5.88v22a5.87,5.87,0,0,1-5.88,5.88H19.84A5.87,5.87,0,0,1,14,393.16Z" fill="#fcfdfd"/>
      <path d="M14,393.16v-22a5.89,5.89,0,0,1,5.88-5.88H254.09a5.89,5.89,0,0,1,5.88,5.88v22a5.87,5.87,0,0,1-5.88,5.88H19.84A5.87,5.87,0,0,1,14,393.16Z" fill="none" stroke="#262626" stroke-width="0.9"/>
      <text transform="translate(31.73 385.93)" font-size="9.95" fill="#bfbebe" font-family="Montserrat, Montserrat">W</text>
      <text transform="translate(42.57 385.93)" font-size="9.95" fill="#bfbebe" font-family="Montserrat, Montserrat">a</text>
      <text transform="translate(48.66 385.93)" font-size="9.95" fill="#bfbebe" font-family="Montserrat, Montserrat">c</text>
      <text transform="translate(54.39 385.93)" font-size="9.95" fill="#bfbebe" font-family="Montserrat, Montserrat">ht</text>
      <text transform="translate(65.33 385.93)" font-size="9.95" fill="#bfbebe" font-family="Montserrat, Montserrat">w</text>
      <text transform="translate(74.33 385.93)" font-size="9.95" fill="#bfbebe" font-family="Montserrat, Montserrat">o</text>
      <text transform="translate(80.75 385.93)" font-size="9.95" fill="#bfbebe" font-family="Montserrat, Montserrat">o</text>
      <text transform="translate(87.16 385.93)" font-size="9.95" fill="#bfbebe" font-family="Montserrat, Montserrat">r</text>
      <text transform="translate(91.24 385.93)" font-size="9.95" fill="#bfbebe" font-family="Montserrat, Montserrat">d</text>
      <text transform="translate(98.08 385.93)" font-size="9.95" fill="#bfbebe" font-family="Montserrat, Montserrat"> </text>
      <path d="M14,343.19v-22a5.89,5.89,0,0,1,5.88-5.88H254.09a5.89,5.89,0,0,1,5.88,5.88v22a5.87,5.87,0,0,1-5.88,5.88H19.84A5.87,5.87,0,0,1,14,343.19Z" fill="#fcfdfd"/>
      <path d="M14,343.19v-22a5.89,5.89,0,0,1,5.88-5.88H254.09a5.89,5.89,0,0,1,5.88,5.88v22a5.87,5.87,0,0,1-5.88,5.88H19.84A5.87,5.87,0,0,1,14,343.19Z" fill="none" stroke="#262626" stroke-width="0.9"/>
      <text transform="translate(31.73 335.96)" font-size="9.95" fill="#bfbebe" font-family="Montserrat, Montserrat">E</text>
      <text transform="translate(38.2 335.96)" font-size="9.95" fill="#bfbebe" font-family="Montserrat, Montserrat">-mai</text>
      <text transform="translate(61.43 335.96)" font-size="9.95" fill="#bfbebe" font-family="Montserrat, Montserrat">l</text>
      <text transform="translate(64.31 335.96)" font-size="9.95" fill="#bfbebe" font-family="Montserrat, Montserrat"> </text>
    </g>
    <g clip-path="url(#c)">
      <text transform="translate(8.51 438.27)" font-size="11" fill="#bfbebe" font-family="Montserrat, Montserrat">-</text>
      <text transform="translate(12.75 438.27)" font-size="11" fill="#bfbebe" font-family="Montserrat, Montserrat">D</text>
      <text transform="translate(21.83 438.27)" font-size="11" fill="#bfbebe" font-family="Montserrat, Montserrat">a</text>
      <text transform="translate(28.56 438.27)" font-size="11" fill="#bfbebe" font-family="Montserrat, Montserrat">g</text>
      <text transform="translate(36.2 438.27)" font-size="11" fill="#bfbebe" font-family="Montserrat, Montserrat">-</text>
      <path d="M48.74,452.76V415.43H62.08a6.5,6.5,0,0,1,6.5,6.49v24.34a6.5,6.5,0,0,1-6.5,6.5Z" fill="#dbad6b"/>
      <g clip-path="url(#d)">
        <g style="isolation: isolate">
          <g clip-path="url(#e)">
            <path d="M64.52,430.64H53a.89.89,0,0,0-.63,1.52l5.76,5.77a.89.89,0,0,0,1.26,0l5.76-5.77a.9.9,0,0,0,.2-1,.91.91,0,0,0-.83-.55" fill="#fbfbfb"/>
          </g>
        </g>
      </g>
      <path d="M.5,446.26V421.93a6.26,6.26,0,0,1,1.9-4.6,6.27,6.27,0,0,1,4.6-1.9H62.08a6.49,6.49,0,0,1,6.5,6.5v24.33a6.49,6.49,0,0,1-6.5,6.5H7a6.27,6.27,0,0,1-4.6-1.9A6.26,6.26,0,0,1,.5,446.26Z" fill="none" stroke="#262626"/>
      <text transform="translate(206.92 438.27)" font-size="11" fill="#bfbebe" font-family="Montserrat, Montserrat">-</text>
      <text transform="translate(211.15 438.27)" font-size="11" fill="#bfbebe" font-family="Montserrat, Montserrat">j</text>
      <text transform="translate(214.4 438.27)" font-size="11" fill="#bfbebe" font-family="Montserrat, Montserrat">a</text>
      <text transform="translate(221.07 438.27)" font-size="11" fill="#bfbebe" font-family="Montserrat, Montserrat">ar</text>
      <text transform="translate(232.28 438.27)" font-size="11" fill="#bfbebe" font-family="Montserrat, Montserrat">-</text>
      <path d="M252.74,452.76V415.43h13.34a6.5,6.5,0,0,1,6.5,6.49v24.34a6.5,6.5,0,0,1-6.5,6.5Z" fill="#dbad6b"/>
      <g clip-path="url(#f)">
        <g style="isolation: isolate">
          <g clip-path="url(#g)">
            <path d="M268.52,430.64H257a.89.89,0,0,0-.63,1.52l5.76,5.77a.89.89,0,0,0,1.26,0l5.76-5.77a.9.9,0,0,0,.2-1,.91.91,0,0,0-.83-.55" fill="#fbfbfb"/>
          </g>
        </g>
      </g>
      <path d="M185.7,446.26V421.93a6.49,6.49,0,0,1,6.5-6.5h74.43a6.5,6.5,0,0,1,6.5,6.5v24.33a6.5,6.5,0,0,1-6.5,6.5H192.2a6.49,6.49,0,0,1-6.5-6.5Z" fill="none" stroke="#262626"/>
      <path d="M155.74,452.76V415.43h13.34a6.5,6.5,0,0,1,6.5,6.49v24.34a6.5,6.5,0,0,1-6.5,6.5Z" fill="#dbad6b"/>
      <g clip-path="url(#h)">
        <g style="isolation: isolate">
          <g clip-path="url(#i)">
            <path d="M171.52,430.64H160a.89.89,0,0,0-.63,1.52l5.76,5.77a.89.89,0,0,0,1.26,0l5.76-5.77a.9.9,0,0,0,.2-1,.91.91,0,0,0-.83-.55" fill="#fbfbfb"/>
          </g>
        </g>
      </g>
      <text transform="translate(94.72 438.27)" font-size="11" fill="#bfbebe" font-family="Montserrat, Montserrat">-</text>
      <text transform="translate(98.96 438.27)" font-size="11" fill="#bfbebe" font-family="Montserrat, Montserrat">M</text>
      <text transform="translate(109.46 438.27)" font-size="11" fill="#bfbebe" font-family="Montserrat, Montserrat">aan</text>
      <text transform="translate(130.41 438.27)" font-size="11" fill="#bfbebe" font-family="Montserrat, Montserrat">d</text>
      <text transform="translate(137.96 438.27)" font-size="11" fill="#bfbebe" font-family="Montserrat, Montserrat">-</text>
      <path d="M77.5,446.26V421.93a6.5,6.5,0,0,1,6.5-6.5h85.51a6.5,6.5,0,0,1,6.5,6.5v24.33a6.5,6.5,0,0,1-6.5,6.5H84a6.5,6.5,0,0,1-6.5-6.5Z" fill="none" stroke="#262626"/>
    </g>
    <g clip-path="url(#j)">
      <text transform="translate(183.72 136.66)" font-size="7" fill="#262626" font-family="Montserrat, Montserrat">Man</text>
      <path d="M159.72,138.36v-8a4.49,4.49,0,0,1,4.5-4.5h8a4.49,4.49,0,0,1,4.5,4.5v8a4.51,4.51,0,0,1-4.5,4.5h-8a4.51,4.51,0,0,1-4.5-4.5Z" fill="#fff"/>
      <path d="M159.72,138.36v-8a4.49,4.49,0,0,1,4.5-4.5h8a4.49,4.49,0,0,1,4.5,4.5v8a4.51,4.51,0,0,1-4.5,4.5h-8a4.51,4.51,0,0,1-4.5-4.5Z" fill="none" stroke="#717070"/>
      <text transform="translate(235.7 136.66)" font-size="7" fill="#262626" font-family="Montserrat, Montserrat">V</text>
      <text transform="translate(240.56 136.66)" font-size="7" fill="#262626" font-family="Montserrat, Montserrat">r</text>
      <text transform="translate(243.43 136.66)" font-size="7" fill="#262626" font-family="Montserrat, Montserrat">ou</text>
      <text transform="translate(252.71 136.66)" font-size="7" fill="#262626" font-family="Montserrat, Montserrat">w</text>
      <path d="M211.71,138.36v-8a4.34,4.34,0,0,1,1.32-3.19,4.29,4.29,0,0,1,3.18-1.31h8a4.49,4.49,0,0,1,4.5,4.5v8a4.51,4.51,0,0,1-4.5,4.5h-8a4.51,4.51,0,0,1-4.5-4.5Z" fill="#fff"/>
      <path d="M211.71,138.36v-8a4.34,4.34,0,0,1,1.32-3.19,4.29,4.29,0,0,1,3.18-1.31h8a4.49,4.49,0,0,1,4.5,4.5v8a4.51,4.51,0,0,1-4.5,4.5h-8a4.51,4.51,0,0,1-4.5-4.5Z" fill="none" stroke="#717070"/>
    </g>
    <g>
      <g clip-path="url(#k)">
        <g clip-path="url(#l)">
          <g style="isolation: isolate">
            <g clip-path="url(#k)">
              <path d="M86.91,80.14H28.3a3.57,3.57,0,0,0-3.59,3.59v24.51a3.58,3.58,0,0,0,3.59,3.6H86.91a3.58,3.58,0,0,0,3.59-3.6V83.73a3.57,3.57,0,0,0-3.59-3.59" fill="#dbad6b"/>
            </g>
          </g>
        </g>
        <path d="M38.33,93.88a1.48,1.48,0,0,0-1-.29H36.22V95.7h1.15a1.61,1.61,0,0,0,1-.28,1,1,0,0,0,.35-.8A.91.91,0,0,0,38.33,93.88Zm.35,4.61-1.14-1.71H36.28v1.71H34.86v-6h2.62a3.12,3.12,0,0,1,1.37.29,2.32,2.32,0,0,1,.91.74,1.9,1.9,0,0,1,.34,1.14,1.92,1.92,0,0,1-.34,1.14,2.41,2.41,0,0,1-.91.74l1.37,1.94H38.68Z" fill="#fcfcfc"/>
        <path d="M42.44,95.07a1.06,1.06,0,0,0-.4.69h2.28a1.06,1.06,0,0,0-.4-.69,1.19,1.19,0,0,0-.74-.28A1.21,1.21,0,0,0,42.44,95.07Zm3.14,1.49H42a1.15,1.15,0,0,0,.46.68,1.35,1.35,0,0,0,.85.23,2,2,0,0,0,.63-.12,1.26,1.26,0,0,0,.51-.34l.74.8a2.41,2.41,0,0,1-1.94.74,3.44,3.44,0,0,1-1.36-.28,2.26,2.26,0,0,1-.92-.86,2.36,2.36,0,0,1-.34-1.25A2.53,2.53,0,0,1,41,94.9a2.22,2.22,0,0,1,.92-.85,2.35,2.35,0,0,1,1.25-.29,3.06,3.06,0,0,1,1.25.29,1.56,1.56,0,0,1,.86.85,2.29,2.29,0,0,1,.34,1.26A1.76,1.76,0,0,1,45.58,96.56Z" fill="#fcfcfc"/>
        <path d="M49.62,96.84A1,1,0,0,0,50,96a1,1,0,0,0-.35-.8,1.17,1.17,0,0,0-.85-.34,1.21,1.21,0,0,0-.86.34,1,1,0,0,0-.34.8,1,1,0,0,0,.34.8,1.17,1.17,0,0,0,.86.34A1.13,1.13,0,0,0,49.62,96.84Zm1.71-3v3.87a2.34,2.34,0,0,1-.68,1.88,2.82,2.82,0,0,1-1.94.63,4.55,4.55,0,0,1-1.25-.17,3.91,3.91,0,0,1-1-.46l.51-1a2.25,2.25,0,0,0,.74.39,2.29,2.29,0,0,0,.92.18,1.37,1.37,0,0,0,1-.35,1.23,1.23,0,0,0,.35-1v-.17a1.87,1.87,0,0,1-1.49.57A3,3,0,0,1,47.29,98a2.27,2.27,0,0,1-.86-.8,2.06,2.06,0,0,1-.28-1.2,2.64,2.64,0,0,1,.28-1.19,1.86,1.86,0,0,1,.86-.8,2.65,2.65,0,0,1,1.19-.29,1.79,1.79,0,0,1,1.54.69v-.57Z" fill="#fcfcfc"/>
        <path d="M52.59,93.88H54v4.61H52.59Zm0-.92a.68.68,0,0,1-.22-.51.61.61,0,0,1,.22-.51,1,1,0,0,1,.63-.23.87.87,0,0,1,.63.23.61.61,0,0,1,.23.51.73.73,0,0,1-.23.57.78.78,0,0,1-.63.23A1,1,0,0,1,52.64,93Z" fill="#fcfcfc"/>
        <path d="M55.61,98.44a5.68,5.68,0,0,1-.86-.34l.46-1,.74.34a4.22,4.22,0,0,0,.86.11c.57,0,.85-.11.85-.4a.28.28,0,0,0-.23-.28,3.74,3.74,0,0,0-.74-.17c-.4-.06-.68-.12-.91-.17a1.51,1.51,0,0,1-.63-.4,1.14,1.14,0,0,1-.28-.8,1.32,1.32,0,0,1,.23-.8,1.41,1.41,0,0,1,.74-.51A3.26,3.26,0,0,1,57,93.88,5.34,5.34,0,0,1,58,94a2.57,2.57,0,0,1,.8.29l-.46,1A2.75,2.75,0,0,0,57,94.9a1.48,1.48,0,0,0-.63.12.29.29,0,0,0-.23.28c0,.17.06.23.23.29a6.61,6.61,0,0,0,.74.17A2.6,2.6,0,0,1,58,96a1.39,1.39,0,0,1,.63.39,1.16,1.16,0,0,1,.29.8,1.08,1.08,0,0,1-.29.74,1.87,1.87,0,0,1-.74.52,3.9,3.9,0,0,1-1.2.17Z" fill="#fcfcfc"/>
        <path d="M62.74,98.27a1.09,1.09,0,0,1-.52.22,2,2,0,0,1-.62.06,1.5,1.5,0,0,1-1.71-1.65V95h-.74V94h.74V92.85h1.36V94h1.14v1H61.25V96.9a.61.61,0,0,0,.18.45.48.48,0,0,0,.39.18.92.92,0,0,0,.57-.18Z" fill="#fcfcfc"/>
        <path d="M65.42,93.93a2.51,2.51,0,0,1,1-.17V95H66.1a1.19,1.19,0,0,0-.91.34,1.24,1.24,0,0,0-.34,1v2.16H63.48V93.88h1.31v.62A1.25,1.25,0,0,1,65.42,93.93Z" fill="#fcfcfc"/>
        <path d="M68.5,95.07a1,1,0,0,0-.4.69h2.28a1.06,1.06,0,0,0-.4-.69,1.21,1.21,0,0,0-.74-.28A1.31,1.31,0,0,0,68.5,95.07Zm3.19,1.49H68.15a1.15,1.15,0,0,0,.46.68,1.37,1.37,0,0,0,.85.23,2,2,0,0,0,.63-.12A1.26,1.26,0,0,0,70.6,97l.75.8a2.44,2.44,0,0,1-1.94.74A3.45,3.45,0,0,1,68,98.27a2.23,2.23,0,0,1-.91-.86,2.28,2.28,0,0,1-.35-1.25,2.44,2.44,0,0,1,.35-1.26,2.14,2.14,0,0,1,.91-.85,2.38,2.38,0,0,1,1.25-.29,3.14,3.14,0,0,1,1.26.29,1.54,1.54,0,0,1,.85.85,2.29,2.29,0,0,1,.35,1.26C71.69,96.21,71.69,96.33,71.69,96.56Z" fill="#fcfcfc"/>
        <path d="M74,95.07a1.06,1.06,0,0,0-.4.69h2.28a1.06,1.06,0,0,0-.4-.69,1.12,1.12,0,0,0-1.48,0Zm3.13,1.49H73.57a1.15,1.15,0,0,0,.46.68,1.35,1.35,0,0,0,.85.23,2,2,0,0,0,.63-.12A1.26,1.26,0,0,0,76,97l.74.8a2.41,2.41,0,0,1-1.94.74,3.4,3.4,0,0,1-1.36-.28,2.26,2.26,0,0,1-.92-.86,2.36,2.36,0,0,1-.34-1.25,2.53,2.53,0,0,1,.34-1.26,2.22,2.22,0,0,1,.92-.85,2.33,2.33,0,0,1,1.25-.29,3.06,3.06,0,0,1,1.25.29,1.56,1.56,0,0,1,.86.85,2.29,2.29,0,0,1,.34,1.26A1.83,1.83,0,0,0,77.1,96.56Z" fill="#fcfcfc"/>
        <path d="M80,93.93a2.5,2.5,0,0,1,1-.17V95h-.28a1.19,1.19,0,0,0-.91.34,1.24,1.24,0,0,0-.34,1v2.16H78V93.88h1.31v.62A1.54,1.54,0,0,1,80,93.93Z" fill="#fcfcfc"/>
      </g>
      <g clip-path="url(#n)">
        <g clip-path="url(#o)">
          <g style="isolation: isolate">
            <g clip-path="url(#n)">
              <path d="M166.23,80.14H108.09a3.54,3.54,0,0,0-3.56,3.56V108a3.54,3.54,0,0,0,3.56,3.56h58.14A3.55,3.55,0,0,0,169.8,108V83.7a3.55,3.55,0,0,0-3.57-3.56" fill="#dbad6b"/>
            </g>
          </g>
        </g>
        <path d="M117.82,93.77h1.36v4.58h-1.36Zm.06-.91a.7.7,0,0,1-.23-.51.63.63,0,0,1,.23-.51,1,1,0,0,1,.62-.22.85.85,0,0,1,.62.22.63.63,0,0,1,.23.51.73.73,0,0,1-.23.57.77.77,0,0,1-.62.22A1,1,0,0,1,117.88,92.86Z" fill="#fcfcfc"/>
        <path d="M124.55,94.16a2.08,2.08,0,0,1,.51,1.53v2.66h-1.3V95.92a1.13,1.13,0,0,0-.23-.8.92.92,0,0,0-.68-.28.94.94,0,0,0-.79.34,1.19,1.19,0,0,0-.28.9v2.27h-1.42V93.77h1.31v.56a2,2,0,0,1,.67-.45,2.38,2.38,0,0,1,.85-.17A1.59,1.59,0,0,1,124.55,94.16Z" fill="#fcfcfc"/>
        <rect x="126.3" y="92.01" width="1.36" height="6.33" fill="#fcfcfc"/>
        <path d="M131.9,97a1.29,1.29,0,0,0,.34-.91,1.18,1.18,0,0,0-.34-.9,1.13,1.13,0,0,0-.85-.34,1.11,1.11,0,0,0-.84.34,1.28,1.28,0,0,0-.34.9,1.19,1.19,0,0,0,.34.91,1.11,1.11,0,0,0,.84.34A1.13,1.13,0,0,0,131.9,97Zm-2.15,1.13a2.63,2.63,0,0,1-.9-.85,2.24,2.24,0,0,1-.34-1.24,2.42,2.42,0,0,1,.34-1.25,2.52,2.52,0,0,1,.9-.84,2.56,2.56,0,0,1,1.3-.29,3.19,3.19,0,0,1,1.31.29,2.21,2.21,0,0,1,.9.84A2.28,2.28,0,0,1,133.6,96a2.36,2.36,0,0,1-.34,1.24,2.23,2.23,0,0,1-.9.85,2.46,2.46,0,0,1-1.31.28A3.37,3.37,0,0,1,129.75,98.12Z" fill="#fcfcfc"/>
        <path d="M137.56,96.71a1.07,1.07,0,0,0,.34-.79,1,1,0,0,0-.34-.8,1.23,1.23,0,0,0-1.7,0,1.07,1.07,0,0,0-.34.8,1,1,0,0,0,.34.79,1.23,1.23,0,0,0,1.7,0Zm1.7-2.94v3.84a2.38,2.38,0,0,1-.68,1.87,2.86,2.86,0,0,1-1.93.62,4.53,4.53,0,0,1-1.24-.17,4,4,0,0,1-1-.45l.51-1a2.15,2.15,0,0,0,.74.39,2.19,2.19,0,0,0,.9.17,1.38,1.38,0,0,0,1-.34,1.26,1.26,0,0,0,.34-1v-.17a1.83,1.83,0,0,1-1.47.57,3.06,3.06,0,0,1-1.19-.29,2.21,2.21,0,0,1-.85-.79,2.09,2.09,0,0,1-.28-1.18,2.61,2.61,0,0,1,.28-1.19,1.91,1.91,0,0,1,.85-.79,2.61,2.61,0,0,1,1.19-.29,1.77,1.77,0,0,1,1.52.68v-.56Z" fill="#fcfcfc"/>
        <path d="M143.55,96.71a1,1,0,0,0,.34-.79,1,1,0,0,0-.34-.8,1.22,1.22,0,0,0-1.69,0,1,1,0,0,0-.34.8,1,1,0,0,0,.34.79,1.22,1.22,0,0,0,1.69,0Zm1.7-2.94v3.84a2.38,2.38,0,0,1-.68,1.87,2.82,2.82,0,0,1-1.92.62,4.6,4.6,0,0,1-1.25-.17,4.1,4.1,0,0,1-1-.45l.51-1a2.19,2.19,0,0,0,.73.39,2.24,2.24,0,0,0,.91.17,1.34,1.34,0,0,0,1-.34,1.22,1.22,0,0,0,.34-1v-.17a1.83,1.83,0,0,1-1.47.57,3,3,0,0,1-1.18-.29,2.14,2.14,0,0,1-.85-.79,2,2,0,0,1-.29-1.18,2.61,2.61,0,0,1,.29-1.19,1.91,1.91,0,0,1,.85-.79,2.57,2.57,0,0,1,1.18-.29,1.8,1.8,0,0,1,1.53.68v-.56Z" fill="#fcfcfc"/>
        <path d="M147.85,95a1.05,1.05,0,0,0-.39.68h2.26a1.06,1.06,0,0,0-.4-.68,1.16,1.16,0,0,0-.73-.28A1.07,1.07,0,0,0,147.85,95ZM151,96.42h-3.5a1.07,1.07,0,0,0,.45.68,1.35,1.35,0,0,0,.85.23,2.29,2.29,0,0,0,.62-.11,1.38,1.38,0,0,0,.51-.34l.73.79a2.38,2.38,0,0,1-1.92.73,3.44,3.44,0,0,1-1.36-.28A2.34,2.34,0,0,1,146.1,96a2.42,2.42,0,0,1,.34-1.25,2.15,2.15,0,0,1,.9-.84,2.35,2.35,0,0,1,1.25-.29,3,3,0,0,1,1.24.29,1.56,1.56,0,0,1,.85.84A2.28,2.28,0,0,1,151,96C151,96.08,151,96.2,151,96.42Z" fill="#fcfcfc"/>
        <path d="M156.05,94.16a2.08,2.08,0,0,1,.51,1.53v2.66H155.2V95.92a1.13,1.13,0,0,0-.22-.8.72.72,0,0,0-.68-.28.94.94,0,0,0-.79.34,1.15,1.15,0,0,0-.28.9v2.27h-1.36V93.77h1.3v.56a1.92,1.92,0,0,1,.68-.45,2.3,2.3,0,0,1,.85-.17A1.58,1.58,0,0,1,156.05,94.16Z" fill="#fcfcfc"/>
      </g>
      <g clip-path="url(#q)">
        <g clip-path="url(#r)">
          <g style="isolation: isolate">
            <g clip-path="url(#q)">
              <path d="M245.43,80.14H186.88a3.57,3.57,0,0,0-3.59,3.58v24.5a3.57,3.57,0,0,0,3.59,3.58h58.55a3.57,3.57,0,0,0,3.59-3.58V83.72a3.57,3.57,0,0,0-3.59-3.58" fill="#dbad6b"/>
            </g>
          </g>
        </g>
        <path d="M197.19,97.34a1.85,1.85,0,0,0,1.42-.52,1.8,1.8,0,0,0,.52-1.36,1.82,1.82,0,0,0-.52-1.37,2,2,0,0,0-1.42-.51h-1.25v3.76Zm-2.62-4.9h2.73a3.46,3.46,0,0,1,1.77.4,2.73,2.73,0,0,1,1.2,1.08,2.91,2.91,0,0,1,.39,1.59,3,3,0,0,1-.39,1.6,3.23,3.23,0,0,1-1.2,1.08,4.2,4.2,0,0,1-1.77.4h-2.73Z" fill="#fcfcfc"/>
        <path d="M204.65,97.11a1.29,1.29,0,0,0,.34-.91,1.18,1.18,0,0,0-.34-.91,1.22,1.22,0,0,0-1.71,0,1.27,1.27,0,0,0-.34.91,1.19,1.19,0,0,0,.34.91,1.25,1.25,0,0,0,1.71,0Zm-2.16,1.14a2.52,2.52,0,0,1-.91-.86,2.26,2.26,0,0,1-.35-1.25,2.41,2.41,0,0,1,.35-1.25,2.6,2.6,0,0,1,.91-.86,2.67,2.67,0,0,1,1.31-.28,3.19,3.19,0,0,1,1.31.28,2.22,2.22,0,0,1,.91.86,2.25,2.25,0,0,1,.34,1.25,2.4,2.4,0,0,1-.34,1.25,2.22,2.22,0,0,1-.91.86,2.46,2.46,0,0,1-1.31.28A3,3,0,0,1,202.49,98.25Z" fill="#fcfcfc"/>
        <path d="M210.29,97.11a1.29,1.29,0,0,0,.34-.91,1.18,1.18,0,0,0-.34-.91,1.22,1.22,0,0,0-1.71,0,1.27,1.27,0,0,0-.34.91,1.19,1.19,0,0,0,.34.91,1.25,1.25,0,0,0,1.71,0Zm-2.16,1.14a2.63,2.63,0,0,1-.92-.86,2.34,2.34,0,0,1-.34-1.25,2.5,2.5,0,0,1,.34-1.25,2.73,2.73,0,0,1,.92-.86,2.65,2.65,0,0,1,1.31-.28,3.19,3.19,0,0,1,1.31.28,2.28,2.28,0,0,1,.91.86,2.34,2.34,0,0,1,.34,1.25,2.5,2.5,0,0,1-.34,1.25,2.28,2.28,0,0,1-.91.86,2.46,2.46,0,0,1-1.31.28A3.12,3.12,0,0,1,208.13,98.25Z" fill="#fcfcfc"/>
        <path d="M214.79,93.92a2.51,2.51,0,0,1,1-.17V95h-.29a1.23,1.23,0,0,0-.91.34,1.26,1.26,0,0,0-.34,1v2.17h-1.37V93.86h1.31v.63A1.16,1.16,0,0,1,214.79,93.92Z" fill="#fcfcfc"/>
        <path d="M219.63,96.82A1,1,0,0,0,220,96a.94.94,0,0,0-.34-.8,1.25,1.25,0,0,0-1.71,0,1,1,0,0,0-.34.8.94.94,0,0,0,.34.79,1.22,1.22,0,0,0,1.71,0Zm1.65-3v3.88a2.36,2.36,0,0,1-.68,1.87,2.82,2.82,0,0,1-1.94.63,4.6,4.6,0,0,1-1.25-.17,3.91,3.91,0,0,1-1-.46l.52-1a2.34,2.34,0,0,0,.74.4,2.42,2.42,0,0,0,.91.17,1.37,1.37,0,0,0,1-.35,1.22,1.22,0,0,0,.35-1v-.17a1.9,1.9,0,0,1-1.49.56,3.08,3.08,0,0,1-1.19-.28,2.34,2.34,0,0,1-.86-.8A2.12,2.12,0,0,1,216.1,96a2.66,2.66,0,0,1,.28-1.2,2,2,0,0,1,.86-.8,2.64,2.64,0,0,1,1.19-.28,1.81,1.81,0,0,1,1.54.68v-.57Z" fill="#fcfcfc"/>
        <path d="M224.93,97.51a1.77,1.77,0,0,0,.4-.46V96.6h-.92c-.56,0-.85.17-.85.57a.42.42,0,0,0,.23.39.81.81,0,0,0,.57.18A2,2,0,0,1,224.93,97.51Zm1.14-3.25a1.9,1.9,0,0,1,.57,1.54v2.62h-1.26v-.57c-.22.45-.74.63-1.42.63a2.08,2.08,0,0,1-.91-.18,1.33,1.33,0,0,1-.63-.51,1.65,1.65,0,0,1-.23-.74,1.13,1.13,0,0,1,.52-1,2.66,2.66,0,0,1,1.48-.4h1.08a.93.93,0,0,0-.29-.69,1.1,1.1,0,0,0-.79-.22,3.08,3.08,0,0,0-.74.11,1.39,1.39,0,0,0-.63.34l-.46-1a2.14,2.14,0,0,1,.92-.39,3.4,3.4,0,0,1,1.08-.18A3.44,3.44,0,0,1,226.07,94.26Z" fill="#fcfcfc"/>
        <path d="M230.22,97.51a1.6,1.6,0,0,0,.4-.46V96.6h-.91c-.57,0-.85.17-.85.57a.41.41,0,0,0,.22.39.85.85,0,0,0,.57.18A2.07,2.07,0,0,1,230.22,97.51Zm1.14-3.25a1.9,1.9,0,0,1,.57,1.54v2.62h-1.25v-.57a1.45,1.45,0,0,1-1.42.63,2.1,2.1,0,0,1-.92-.18,1.35,1.35,0,0,1-.62-.51,1.54,1.54,0,0,1-.23-.74,1.14,1.14,0,0,1,.51-1,2.68,2.68,0,0,1,1.48-.4h1.09a1,1,0,0,0-.29-.69,1.11,1.11,0,0,0-.8-.22,3.23,3.23,0,0,0-.74.11,1.41,1.41,0,0,0-.62.34l-.4-.85a2.3,2.3,0,0,1,.91-.4,3.69,3.69,0,0,1,1.08-.17A2.3,2.3,0,0,1,231.36,94.26Z" fill="#fcfcfc"/>
        <path d="M237.4,94.26a2.1,2.1,0,0,1,.51,1.54v2.68h-1.36V96a1.11,1.11,0,0,0-.23-.8,1,1,0,0,0-1.48.06,1.16,1.16,0,0,0-.29.91v2.28h-1.36V93.86h1.31v.57a1.92,1.92,0,0,1,.68-.45,2.15,2.15,0,0,1,.85-.17A1.67,1.67,0,0,1,237.4,94.26Z" fill="#fcfcfc"/>
      </g>
    </g>
    <g clip-path="url(#t)">
      <text transform="translate(33.65 136.66)" font-size="7" fill="#262626" font-family="Montserrat, Montserrat">Onth</text>
      <text transform="translate(52.14 136.66)" font-size="7" fill="#262626" font-family="Montserrat, Montserrat">o</text>
      <text transform="translate(56.66 136.66)" font-size="7" fill="#262626" font-family="Montserrat, Montserrat">ud </text>
      <text transform="translate(68.16 136.66)" font-size="7" fill="#262626" font-family="Montserrat, Montserrat"> </text>
      <text transform="translate(70.1 136.66)" font-size="7" fill="#262626" font-family="Montserrat, Montserrat">M</text>
      <text transform="translate(76.78 136.66)" font-size="7" fill="#262626" font-family="Montserrat, Montserrat">a</text>
      <text transform="translate(81.03 136.66)" font-size="7" fill="#262626" font-family="Montserrat, Montserrat">i</text>
      <text transform="translate(83.05 136.66)" font-size="7" fill="#262626" font-family="Montserrat, Montserrat">l</text>
      <text transform="translate(85.08 136.66)" font-size="7" fill="#262626" font-family="Montserrat, Montserrat"> </text>
      <text transform="translate(87.01 136.66)" font-size="7" fill="#262626" font-family="Montserrat, Montserrat">/ </text>
      <text transform="translate(91.54 136.66)" font-size="7" fill="#262626" font-family="Montserrat, Montserrat">w</text>
      <text transform="translate(97.85 136.66)" font-size="7" fill="#262626" font-family="Montserrat, Montserrat">a</text>
      <text transform="translate(102.13 136.66)" font-size="7" fill="#262626" font-family="Montserrat, Montserrat">c</text>
      <text transform="translate(106.17 136.66)" font-size="7" fill="#262626" font-family="Montserrat, Montserrat">h</text>
      <text transform="translate(110.96 136.66)" font-size="7" fill="#262626" font-family="Montserrat, Montserrat">t</text>
      <text transform="translate(113.86 136.66)" font-size="7" fill="#262626" font-family="Montserrat, Montserrat">w</text>
      <text transform="translate(120.19 136.66)" font-size="7" fill="#262626" font-family="Montserrat, Montserrat">o</text>
      <text transform="translate(124.7 136.66)" font-size="7" fill="#262626" font-family="Montserrat, Montserrat">o</text>
      <text transform="translate(129.22 136.66)" font-size="7" fill="#262626" font-family="Montserrat, Montserrat">r</text>
      <text transform="translate(132.09 136.66)" font-size="7" fill="#262626" font-family="Montserrat, Montserrat">d</text>
      <path d="M14,135.05v-1.69a4.49,4.49,0,0,1,4.5-4.5h1.7a4.49,4.49,0,0,1,4.5,4.5v1.69a4.51,4.51,0,0,1-4.5,4.5h-1.7a4.51,4.51,0,0,1-4.5-4.5Z" fill="#fff"/>
      <path d="M14,135.05v-1.69a4.49,4.49,0,0,1,4.5-4.5h1.7a4.49,4.49,0,0,1,4.5,4.5v1.69a4.51,4.51,0,0,1-4.5,4.5h-1.7a4.51,4.51,0,0,1-4.5-4.5Z" fill="none" stroke="#717070"/>
    </g>
    <g clip-path="url(#u)">
      <rect x="5.5" y="1.92" width="60.93" height="60.93" fill="#dbad6b"/>
      <path d="M40.35,11.55h2.56l.17,0c.69,0,1.41,0,2.1.1a14.73,14.73,0,0,1,1.6.17v6.64H43a8.06,8.06,0,0,0-1.39.1,2.38,2.38,0,0,0-2.2,2,6.31,6.31,0,0,0-.17,1.49c0,1.5,0,3,0,4.51v.24h7.34c-.33,2.49-.64,4.95-1,7.41H39.2v19H31.55v-19H25.17V26.82h6.36V21.44a14.7,14.7,0,0,1,.31-3,8.48,8.48,0,0,1,7.43-6.72C39.63,11.62,40,11.6,40.35,11.55Z" fill="#fcfcfc"/>
      <rect x="207.17" y="2.03" width="60.93" height="60.93" fill="#dbad6b"/>
      <path d="M251.22,30.41a1.89,1.89,0,0,1-1.26-.22,19.44,19.44,0,0,0-3.16-1.5,27.29,27.29,0,0,0-4.75-1.34c-1-.22-2.06-.36-3.11-.48-.86-.1-1.72-.17-2.61-.19s-1.72-.05-2.58,0c-1.07,0-2.15.09-3.2.21a24.74,24.74,0,0,0-4.73.93,1.95,1.95,0,1,1-1.13-3.73,28.46,28.46,0,0,1,3.61-.81c1-.17,2.06-.29,3.11-.36s2.13-.12,3.18-.12,2.15,0,3.2.12a38.39,38.39,0,0,1,5.24.72,29.59,29.59,0,0,1,6.52,2.06c.79.35,1.58.76,2.34,1.19a1.92,1.92,0,0,1,.91,2A1.94,1.94,0,0,1,251.22,30.41Zm-1.31,5a1.64,1.64,0,0,1-1.32,1.34,1.6,1.6,0,0,1-1.14-.24A20.69,20.69,0,0,0,244.32,35a26.18,26.18,0,0,0-4.69-1.34,24.72,24.72,0,0,0-3.32-.43,27.1,27.1,0,0,0-3.49,0,25.57,25.57,0,0,0-5.71.91,2.47,2.47,0,0,1-.84.14,1.62,1.62,0,0,1-.36-3.18,26.53,26.53,0,0,1,3.66-.81c.76-.12,1.55-.21,2.32-.26s1.41-.07,2.27-.07a26.34,26.34,0,0,1,2.72.12,29.5,29.5,0,0,1,3.59.5,28.73,28.73,0,0,1,5.95,1.86,21.49,21.49,0,0,1,2.72,1.44A1.54,1.54,0,0,1,249.91,35.45Zm-2.63,5.93a1.29,1.29,0,0,1-1.94.72,17.93,17.93,0,0,0-3.63-1.7,20.63,20.63,0,0,0-3.82-.91,26.47,26.47,0,0,0-3.66-.24,27,27,0,0,0-3.11.19,39,39,0,0,0-3.94.67,1.29,1.29,0,0,1-1.6-1.34,1.26,1.26,0,0,1,1-1.17c1-.21,2-.4,2.94-.55.82-.12,1.63-.21,2.44-.28s1.51-.1,2.27-.1a24.28,24.28,0,0,1,2.7.12,22.68,22.68,0,0,1,7.8,2.08,18,18,0,0,1,2,1.08A1.21,1.21,0,0,1,247.28,41.38Zm-9.63-29.62A20.74,20.74,0,1,0,258.4,32.54,20.73,20.73,0,0,0,237.65,11.76Z" fill="#fcfcfc"/>
      <rect x="72.72" y="1.92" width="60.93" height="60.93" fill="#dbad6b"/>
      <path d="M103.19,15.35c-1.67,0-3.34,0-5,0-.83,0-1.69,0-2.53.07s-1.51.08-2.27.17a8.44,8.44,0,0,0-2.32.55,6.76,6.76,0,0,0-4.06,4,11.21,11.21,0,0,0-.7,3.57c-.05.83-.07,1.69-.09,2.53,0,.64,0,1.27,0,1.91v3.92c0,1.79,0,3.59,0,5.36,0,.86,0,1.72.07,2.58,0,.59.07,1.19.12,1.81a10.25,10.25,0,0,0,.38,2.06A7.14,7.14,0,0,0,88.56,47a6.9,6.9,0,0,0,2.61,1.65,11.06,11.06,0,0,0,3.42.63c.86,0,1.74.07,2.6.09s1.41,0,2.13,0c2.89,0,5.81,0,8.7,0,.91,0,1.84,0,2.75-.07.69,0,1.39-.07,2.08-.14a10.32,10.32,0,0,0,2.46-.55,6.78,6.78,0,0,0,4-3.57,10.38,10.38,0,0,0,.88-3.75c0-.72.07-1.43.1-2.17s0-1.49,0-2.23v-2.1c0-2.53,0-5,0-7.58,0-.36,0-.69,0-1.05,0-.81,0-1.6-.1-2.41a12,12,0,0,0-.29-2.32,7.19,7.19,0,0,0-2.1-3.92A6.57,6.57,0,0,0,116,16.33a10.72,10.72,0,0,0-3.75-.89l-2.15-.09c-.89,0-1.75,0-2.63,0C106,15.33,104.6,15.35,103.19,15.35Zm-5-3.78h9.92l.07,0c.43,0,.86,0,1.29,0,.62,0,1.22,0,1.84.07s1.51.1,2.25.19a12.91,12.91,0,0,1,3,.72,10.46,10.46,0,0,1,6.31,6.17,14.37,14.37,0,0,1,.93,4.44c.05.77.07,1.53.1,2.3s0,1.53,0,2.27v2c0,2.48,0,5,0,7.46,0,.47,0,.93,0,1.41s0,1.26-.08,1.89-.09,1.41-.16,2.12a13.86,13.86,0,0,1-.65,2.92,10.65,10.65,0,0,1-3.3,4.83,11.12,11.12,0,0,1-3.77,2,15.8,15.8,0,0,1-4,.67c-.9,0-1.81.07-2.7.09-.71,0-1.45,0-2.17,0-2.92,0-5.83,0-8.77,0-.46,0-.94,0-1.39,0-.62,0-1.27,0-1.89-.07s-1.53-.1-2.29-.19a12.45,12.45,0,0,1-3.18-.79,10.41,10.41,0,0,1-5.33-4.47,12.48,12.48,0,0,1-1.65-5.14c-.07-.69-.12-1.39-.15-2.08,0-.86,0-1.72-.07-2.58,0-.17,0-.34,0-.5V27.4s0,0,0-.08c0-.43,0-.86,0-1.29,0-.62,0-1.22.07-1.84s.09-1.38.17-2.08a12.7,12.7,0,0,1,.62-2.86,10.51,10.51,0,0,1,3.65-5.14,11.58,11.58,0,0,1,4.5-2,15.71,15.71,0,0,1,3.06-.38l3.27-.12A1.29,1.29,0,0,0,98.22,11.57Z" fill="#fcfcfc"/>
      <path d="M96.26,32.39a6.92,6.92,0,1,0,7-6.93A6.92,6.92,0,0,0,96.26,32.39Zm-3.75,0A10.69,10.69,0,1,1,103.1,43.08,10.67,10.67,0,0,1,92.51,32.39Z" fill="#fcfcfc"/>
      <path d="M114.28,23.79a2.5,2.5,0,1,1,0-5,2.5,2.5,0,1,1,0,5Z" fill="#fcfcfc"/>
      <rect x="139.96" y="1.99" width="60.93" height="60.93" fill="#dbad6b"/>
      <path d="M166.34,26.27V38.49L177,32.37C173.37,30.31,169.91,28.3,166.34,26.27Zm4.76,20.39c-4.92-.17-9.15-.28-13.36-.48a19.58,19.58,0,0,1-2.77-.33,5.19,5.19,0,0,1-4.12-4.3,53.62,53.62,0,0,1-.59-12.84,39.33,39.33,0,0,1,.55-5.11c.62-3.23,2.22-4.57,5.49-4.9a138.72,138.72,0,0,1,15.52-.46c3.73,0,7.46.19,11.18.31a19.29,19.29,0,0,1,2.85.34,5.15,5.15,0,0,1,4.11,4.3,54.1,54.1,0,0,1,.6,12.84,41.16,41.16,0,0,1-.55,5.11c-.62,3.23-2.22,4.66-5.5,4.88C179.8,46.33,175.12,46.47,171.1,46.66Z" fill="#fcfcfc"/>
    </g>
  </g>
</svg>
