<svg id="Layer_1" data-name="Layer 1" xmlns="http://www.w3.org/2000/svg" xmlns:xlink="http://www.w3.org/1999/xlink" viewBox="0 0 370.2 143.2"><defs><style>.cls-1,.cls-2,.cls-3,.cls-4,.cls-5,.cls-6,.cls-7,.cls-8{stroke:#d6a562;stroke-miterlimit:10;stroke-width:2.13px;}.cls-2{fill:url(#radial-gradient);}.cls-3{fill:url(#radial-gradient-2);}.cls-4{fill:url(#radial-gradient-3);}.cls-5{fill:url(#radial-gradient-4);}.cls-6{fill:url(#radial-gradient-7);}.cls-7{fill:url(#radial-gradient-8);}.cls-8{fill:url(#radial-gradient-9);}</style><radialGradient id="radial-gradient" cx="185.98" cy="35.95" r="142.62" gradientTransform="matrix(0, -0.86, 2, 0, 114, 231.55)" gradientUnits="userSpaceOnUse"><stop offset="0" stop-color="#414042"/><stop offset="0.37" stop-color="#2c2b2d"/><stop offset="1"/></radialGradient><radialGradient id="radial-gradient-2" cx="185.98" cy="35.95" r="142.62" xlink:href="#radial-gradient"/><radialGradient id="radial-gradient-3" cx="185.98" cy="35.95" r="142.62" xlink:href="#radial-gradient"/><radialGradient id="radial-gradient-4" cx="185.98" cy="35.95" r="142.62" xlink:href="#radial-gradient"/><radialGradient id="radial-gradient-7" cx="185.98" cy="35.95" r="142.62" xlink:href="#radial-gradient"/><radialGradient id="radial-gradient-8" cx="185.98" cy="35.95" r="142.62" xlink:href="#radial-gradient"/><radialGradient id="radial-gradient-9" cx="185.98" cy="35.95" r="142.62" xlink:href="#radial-gradient"/></defs><title>Logo</title><path class="cls-1" d="M370.1,38.4a39.1,39.1,0,0,0-.3-4.9v10A43.6,43.6,0,0,0,370.1,38.4Z" transform="translate(-0.9 -0.9)"/><path class="cls-1" d="M26.5,74.2q12,0,19.2-7.2c4.8-4.9,7.2-11.3,7.2-19.3V2h-21V46.9c0,4.3-1.5,6.5-4.4,6.5s-4.6-2.2-4.6-6.5V2H1.9V47c0,8.8,2.1,15.5,6.4,20.2S18.6,74.2,26.5,74.2Z" transform="translate(-0.9 -0.9)"/><path class="cls-2" d="M26.5,74.2q12,0,19.2-7.2c4.8-4.9,7.2-11.3,7.2-19.3V2h-21V46.9c0,4.3-1.5,6.5-4.4,6.5s-4.6-2.2-4.6-6.5V2H1.9V47c0,8.8,2.1,15.5,6.4,20.2S18.6,74.2,26.5,74.2Z" transform="translate(-0.9 -0.9)"/><path class="cls-1" d="M146.1,52.1c-1.1-1.1-1.6-3.2-1.6-6.5V3.8h-21V48.9c0,8,2.2,14.1,6.4,18.6s10.3,6.7,17.9,6.7h5.6V53.7h-1.1C149.2,53.7,147.1,53.2,146.1,52.1Z" transform="translate(-0.9 -0.9)"/><path class="cls-3" d="M146.1,52.1c-1.1-1.1-1.6-3.2-1.6-6.5V3.8h-21V48.9c0,8,2.2,14.1,6.4,18.6s10.3,6.7,17.9,6.7h5.6V53.7h-1.1C149.2,53.7,147.1,53.2,146.1,52.1Z" transform="translate(-0.9 -0.9)"/><path class="cls-1" d="M156.2,38.9A35.6,35.6,0,0,0,167,65.1a37.2,37.2,0,0,0,52.4,0,35.5,35.5,0,0,0,10.8-26.2,35.8,35.8,0,0,0-10.7-26A34.7,34.7,0,0,0,193.8,2a36.9,36.9,0,0,0-26.7,10.7A35.3,35.3,0,0,0,156.2,38.9Zm26-11.4a15,15,0,0,1,22,0,15.8,15.8,0,0,1,4.5,11.4,16,16,0,0,1-4.5,11.5,14.5,14.5,0,0,1-11,4.7,14.6,14.6,0,0,1-11-4.7,16.2,16.2,0,0,1-4.5-11.5A16.1,16.1,0,0,1,182.2,27.5Z" transform="translate(-0.9 -0.9)"/><path class="cls-4" d="M156.2,38.9A35.6,35.6,0,0,0,167,65.1a37.2,37.2,0,0,0,52.4,0,35.5,35.5,0,0,0,10.8-26.2,35.8,35.8,0,0,0-10.7-26A34.7,34.7,0,0,0,193.8,2a36.9,36.9,0,0,0-26.7,10.7A35.3,35.3,0,0,0,156.2,38.9Zm26-11.4a15,15,0,0,1,22,0,15.8,15.8,0,0,1,4.5,11.4,16,16,0,0,1-4.5,11.5,14.5,14.5,0,0,1-11,4.7,14.6,14.6,0,0,1-11-4.7,16.2,16.2,0,0,1-4.5-11.5A16.1,16.1,0,0,1,182.2,27.5Z" transform="translate(-0.9 -0.9)"/><path class="cls-1" d="M358,11.9c-6.8-5.4-16.2-8.1-28.1-8.1H302.6V74.2h20.9V24h7.1q18,0,18,14.4T330.3,53.7h-3.4V74.4l6.3.2c10.8,0,19.7-3.4,26.5-10.1a34.2,34.2,0,0,0,10.1-21v-10A31.7,31.7,0,0,0,358,11.9Z" transform="translate(-0.9 -0.9)"/><path class="cls-5" d="M358,11.9c-6.8-5.4-16.2-8.1-28.1-8.1H302.6V74.2h20.9V24h7.1q18,0,18,14.4T330.3,53.7h-3.4V74.4l6.3.2c10.8,0,19.7-3.4,26.5-10.1a34.2,34.2,0,0,0,10.1-21v-10A31.7,31.7,0,0,0,358,11.9Z" transform="translate(-0.9 -0.9)"/><path class="cls-1" d="M125.6,123.3V103h-9.3v-1.7a10.2,10.2,0,0,1,2.2-6.9,7.7,7.7,0,0,1,6.1-2.5h1V71.8h-2.2a28.3,28.3,0,0,0-14.7,4.2A25.5,25.5,0,0,0,95.5,99.4v43.7h20.8V123.3Z" transform="translate(-0.9 -0.9)"/><path class="cls-4" d="M125.6,123.3V103h-9.3v-1.7a10.2,10.2,0,0,1,2.2-6.9,7.7,7.7,0,0,1,6.1-2.5h1V71.8h-2.2a28.3,28.3,0,0,0-14.7,4.2A25.5,25.5,0,0,0,95.5,99.4v43.7h20.8V123.3Z" transform="translate(-0.9 -0.9)"/><path class="cls-1" d="M167.5,123.8a8.3,8.3,0,0,1-6,2.9,7.2,7.2,0,0,1-6.2-3.1,12.6,12.6,0,0,1-2.4-8.1,12.1,12.1,0,0,1,2.4-7.8,7.8,7.8,0,0,1,6.4-3.1c3.9,0,6.2,1.9,7,5.7H158.1a13.2,13.2,0,0,0-1,5.1,12.1,12.1,0,0,0,.7,4h31.6c.1-1.6.2-2.8.2-3.6a24.4,24.4,0,0,0-8.2-18.7c-5.5-5.1-12.3-7.6-20.3-7.6s-15.2,2.6-20.9,7.8a25.7,25.7,0,0,0-.1,38.1c5.6,5.1,12.6,7.7,20.8,7.7a30.4,30.4,0,0,0,18.5-6.1Z" transform="translate(-0.9 -0.9)"/><path class="cls-4" d="M167.5,123.8a8.3,8.3,0,0,1-6,2.9,7.2,7.2,0,0,1-6.2-3.1,12.6,12.6,0,0,1-2.4-8.1,12.1,12.1,0,0,1,2.4-7.8,7.8,7.8,0,0,1,6.4-3.1c3.9,0,6.2,1.9,7,5.7H158.1a13.2,13.2,0,0,0-1,5.1,12.1,12.1,0,0,0,.7,4h31.6c.1-1.6.2-2.8.2-3.6a24.4,24.4,0,0,0-8.2-18.7c-5.5-5.1-12.3-7.6-20.3-7.6s-15.2,2.6-20.9,7.8a25.7,25.7,0,0,0-.1,38.1c5.6,5.1,12.6,7.7,20.8,7.7a30.4,30.4,0,0,0,18.5-6.1Z" transform="translate(-0.9 -0.9)"/><path class="cls-1" d="M225.2,118.8q.5-4.5,2.1-6c1.1-1,3.1-1.5,6.1-1.5V91h-6.3c-7.3,0-12.9,1.8-17,5.5a16.2,16.2,0,0,0-4.7,6.3,49.1,49.1,0,0,0-1.6,11.1c-.2,3.3-1,5.5-2.4,6.8s-3.8,1.9-7.2,1.9h-.9v20.5h2.9c7.1,0,12.7-1.1,16.6-3.2C220.1,135.8,224.3,128.8,225.2,118.8Z" transform="translate(-0.9 -0.9)"/><path class="cls-6" d="M225.2,118.8q.5-4.5,2.1-6c1.1-1,3.1-1.5,6.1-1.5V91h-6.3c-7.3,0-12.9,1.8-17,5.5a16.2,16.2,0,0,0-4.7,6.3,49.1,49.1,0,0,0-1.6,11.1c-.2,3.3-1,5.5-2.4,6.8s-3.8,1.9-7.2,1.9h-.9v20.5h2.9c7.1,0,12.7-1.1,16.6-3.2C220.1,135.8,224.3,128.8,225.2,118.8Z" transform="translate(-0.9 -0.9)"/><path class="cls-1" d="M85.1,74.2V28h0V22.1h5.1c3.1.1,4.7,1.5,4.7,4.4s-2.2,4.9-6.4,4.9V49.8h3.2c8.1,0,14.1-2,18.1-6s6.5-9.9,6.5-16.8A24.1,24.1,0,0,0,109,9.2,24.9,24.9,0,0,0,91.3,2H64.2V74.2Z" transform="translate(-0.9 -0.9)"/><path class="cls-7" d="M85.1,74.2V28h0V22.1h5.1c3.1.1,4.7,1.5,4.7,4.4s-2.2,4.9-6.4,4.9V49.8h3.2c8.1,0,14.1-2,18.1-6s6.5-9.9,6.5-16.8A24.1,24.1,0,0,0,109,9.2,24.9,24.9,0,0,0,91.3,2H64.2V74.2Z" transform="translate(-0.9 -0.9)"/><path class="cls-1" d="M269.4,122.7c-3.8,0-6.3-.7-7.7-2.3s-2.1-4.3-2.1-8.4H269V91.6h-9.4V57.4h9.4V74.2h21V28.7c0-9.1-2-15.8-5.9-20.2S273.9,2,265.6,2s-15.2,2.4-19.9,7.2-7.1,11.5-7.1,20.2v84.7c0,7.4,1.6,13.2,4.8,17.7a27.3,27.3,0,0,0,10.1,8.2,29.7,29.7,0,0,0,13.5,3.1h17.2Zm-9.9-92.6c0-4.9,1.7-7.4,4.9-7.4a4.1,4.1,0,0,1,3.6,1.6c.6,1.1.9,3,.9,5.8v8.7h-9.4Z" transform="translate(-0.9 -0.9)"/><path class="cls-8" d="M269.4,122.7c-3.8,0-6.3-.7-7.7-2.3s-2.1-4.3-2.1-8.4H269V91.6h-9.4V57.4h9.4V74.2h21V28.7c0-9.1-2-15.8-5.9-20.2S273.9,2,265.6,2s-15.2,2.4-19.9,7.2-7.1,11.5-7.1,20.2v84.7c0,7.4,1.6,13.2,4.8,17.7a27.3,27.3,0,0,0,10.1,8.2,29.7,29.7,0,0,0,13.5,3.1h17.2Zm-9.9-92.6c0-4.9,1.7-7.4,4.9-7.4a4.1,4.1,0,0,1,3.6,1.6c.6,1.1.9,3,.9,5.8v8.7h-9.4Z" transform="translate(-0.9 -0.9)"/></svg>